<svg width="88" height="36" viewBox="0 0 88 36" fill="none" xmlns="http://www.w3.org/2000/svg">
<path d="M0.25 35V0.0909081H15.3182C17.9091 0.0909081 20.1761 0.562499 22.1193 1.50568C24.0625 2.44886 25.5739 3.80682 26.6534 5.57955C27.733 7.35227 28.2727 9.47727 28.2727 11.9545C28.2727 14.4545 27.7159 16.5625 26.6023 18.2784C25.5 19.9943 23.9489 21.2898 21.9489 22.1648C19.9602 23.0398 17.6364 23.4773 14.9773 23.4773H5.97727V16.1136H13.0682C14.1818 16.1136 15.1307 15.9773 15.9148 15.7045C16.7102 15.4205 17.3182 14.9716 17.7386 14.358C18.1705 13.7443 18.3864 12.9432 18.3864 11.9545C18.3864 10.9545 18.1705 10.142 17.7386 9.51705C17.3182 8.88068 16.7102 8.41477 15.9148 8.11932C15.1307 7.8125 14.1818 7.65909 13.0682 7.65909H9.72727V35H0.25ZM20.7045 18.9773L29.4318 35H19.1364L10.6136 18.9773H20.7045ZM32.3125 0.0909081H44.108L52.2216 19.8636H52.6307L60.7443 0.0909081H72.5398V35H63.267V14.8182H62.9943L55.2216 34.7273H49.6307L41.858 14.6818H41.5852V35H32.3125V0.0909081ZM82.2812 35.5455C80.9631 35.5455 79.8324 35.0852 78.8892 34.1648C77.9574 33.233 77.4972 32.1023 77.5085 30.7727C77.4972 29.4773 77.9574 28.3693 78.8892 27.4489C79.8324 26.5284 80.9631 26.0682 82.2812 26.0682C83.5312 26.0682 84.6335 26.5284 85.5881 27.4489C86.554 28.3693 87.0426 29.4773 87.054 30.7727C87.0426 31.6591 86.8097 32.4659 86.3551 33.1932C85.9119 33.9091 85.3324 34.483 84.6165 34.9148C83.9006 35.3352 83.1222 35.5455 82.2812 35.5455Z" fill="#8C00FF"/>
</svg>
